<svg id="Layer_1" data-name="Layer 1" xmlns="http://www.w3.org/2000/svg" viewBox="0 0 482.88 482.98"><path d="M136.5,34.6c-48.1,8.6-86.8,44.2-99,91-4.4,16.9-4.7,26.8-4.2,157.9.3,120.4.4,123.2,2.4,132.5,11.1,50.1,46.7,85.8,97.3,97.6,6.6,1.5,15,1.8,69.1,2.1,56,.4,61.8.3,63.3-1.2s1.6-20.8,1.6-239.6c0-162.2-.3-238.6-1-240-1-1.8-2.7-1.9-61.3-1.8C157.1,33.2,142.8,33.5,136.5,34.6Zm90.5,240V477.2l-40.7-.5c-37.5-.4-41.5-.6-49-2.5-32.2-8.3-56.1-33.1-62.8-65.4-2.2-10.1-2.2-258.9-.1-268.8a85.88,85.88,0,0,1,51.8-61.9c13.2-5.3,19.3-5.9,62.1-6L227,72Z" transform="translate(-33.12 -33)"/><path d="M145.1,133.1c-6.3,1.2-15.9,6-21,10.5-10.5,9.1-15.7,22-14.9,37.2.4,7.9.9,10,4.1,16.4a45.54,45.54,0,0,0,21.5,21.6c6.7,3.3,8.4,3.7,17.1,4,7.9.3,10.7,0,16-1.8,21.7-7.3,34.8-28.4,31.1-50C194.7,145.3,170.3,128.1,145.1,133.1Z" transform="translate(-33.12 -33)"/><path d="M315.7,33.7c-.4.3-.7,108.7-.7,240.9,0,218.1.1,240.2,1.6,240.8,2.7,1,80.3.6,89.9-.4,40.6-4.6,76.4-29.3,95.9-66a148.57,148.57,0,0,0,7.5-17.5c6.3-18.8,6.1-13.8,6.1-157.5,0-114.7-.2-131.8-1.6-139.1-9.9-52.1-49.6-91.4-101.8-100.4-7-1.2-17.8-1.5-52.6-1.5C336,33,316,33.3,315.7,33.7ZM422.5,251.5a48.92,48.92,0,0,1,33.6,31.2c3.3,9.4,3.2,23.2-.1,31.8-6.1,15.8-18.1,26.9-33.5,31-25,6.5-51.6-8.6-58.9-33.4-2.2-7.6-2.1-20.4.4-28.2C371.5,259.4,397.5,245,422.5,251.5Z" transform="translate(-33.12 -33)"/></svg>